<?xml version="1.0" encoding="UTF-8" standalone="no"?>
<svg
   xmlns:dc="http://purl.org/dc/elements/1.1/"
   xmlns:cc="http://creativecommons.org/ns#"
   xmlns:rdf="http://www.w3.org/1999/02/22-rdf-syntax-ns#"
   xmlns:svg="http://www.w3.org/2000/svg"
   xmlns="http://www.w3.org/2000/svg"
   xmlns:sodipodi="http://sodipodi.sourceforge.net/DTD/sodipodi-0.dtd"
   xmlns:inkscape="http://www.inkscape.org/namespaces/inkscape"
   height="540.04102"
   version="1.1"
   width="512"
   id="svg3414"
   inkscape:version="0.91 r13725"
   sodipodi:docname="beer.svg">
  <metadata
     id="metadata3440">
    <rdf:RDF>
      <cc:Work
         rdf:about="">
        <dc:format>image/svg+xml</dc:format>
        <dc:type
           rdf:resource="http://purl.org/dc/dcmitype/StillImage" />
        <dc:title></dc:title>
      </cc:Work>
    </rdf:RDF>
  </metadata>
  <defs
     id="defs3438">
    <clipPath
       clipPathUnits="userSpaceOnUse"
       id="clipPath3669">
      <rect
         style="fill:#000000;stroke:none"
         id="rect3671"
         width="22.894081"
         height="19.172781"
         x="1.2114958"
         y="1031.4142" />
    </clipPath>
  </defs>
  <sodipodi:namedview
     pagecolor="#ffffff"
     bordercolor="#666666"
     borderopacity="1"
     objecttolerance="10"
     gridtolerance="10"
     guidetolerance="10"
     inkscape:pageopacity="0"
     inkscape:pageshadow="2"
     inkscape:window-width="1920"
     inkscape:window-height="1043"
     id="namedview3436"
     showgrid="false"
     inkscape:zoom="0.86915209"
     inkscape:cx="341.32852"
     inkscape:cy="324.19676"
     inkscape:window-x="0"
     inkscape:window-y="0"
     inkscape:window-maximized="1"
     inkscape:current-layer="svg3414"
     inkscape:snap-grids="true" />
  <g
     transform="matrix(28.444444,0,0,28.444444,-113.77778,-29338.003)"
     id="g3416"
     clip-path="url(#clipPath3669)">
    <path
       d="m 4,1033.4 0,15 c 0,1.1 0.8954,2 2,2 l 10,0 c 1.105,0 2,-0.9 2,-2 l 0,-15 -14,0 z"
       id="path3418"
       inkscape:connector-curvature="0"
       style="fill:#f1c40f" />
    <path
       d="m 4,1031.4 0,2 0,15 c 0,1.1 0.8954,2 2,2 l 10,0 c 1.105,0 2,-0.9 2,-2 l 0,-15 0,-2 -1,0 0,2 0,15 c 0,0.5 -0.448,1 -1,1 l -10,0 c -0.5523,0 -1,-0.5 -1,-1 l 0,-15 0,-2 -1,0 z"
       id="path3420"
       inkscape:connector-curvature="0"
       style="fill:#f39c12" />
    <path
       d="m 18,1034.4 0,0.7 0,0.3 0,1 1,0 c 0.552,0 1,0.4 1,1 l 0,3 0,3 c 0,0.5 -0.448,1 -1,1 l -1,0 0,1 0,0.2 0,0.8 2,0 c 1.105,0 2,-0.9 2,-2 l 0,-2 0,-2 0,-2 0,-2 c 0,-1.1 -0.895,-2 -2,-2 l -2,0 z"
       id="path3422"
       inkscape:connector-curvature="0"
       style="fill:#ecf0f1" />
    <path
       d="m 19,1034.4 c 1.105,0 2,0.9 2,2 l 0,2 0,2 0,2 0,2 c 0,1.1 -0.895,2 -2,2 l 1,0 c 1.105,0 2,-0.9 2,-2 l 0,-2 0,-2 0,-2 0,-2 c 0,-1.1 -0.895,-2 -2,-2 l -1,0 z"
       id="path3424"
       inkscape:connector-curvature="0"
       style="fill:#bdc3c7" />
    <path
       d="m 4,1047.4 0,1 c 0,1.1 0.8954,2 2,2 l 10,0 c 1.105,0 2,-0.9 2,-2 l 0,-1 c 0,1.1 -0.895,2 -2,2 l -10,0 c -1.1046,0 -2,-0.9 -2,-2 z"
       id="path3426"
       inkscape:connector-curvature="0"
       style="fill:#e67e22" />
    <rect
       height="5"
       width="1"
       x="4"
       y="1030.4"
       id="rect3428"
       style="fill:#bdc3c7" />
    <rect
       height="4"
       width="1"
       x="17"
       y="1030.4"
       id="rect3430"
       style="fill:#bdc3c7" />
    <path
       d="m 7,1035.4 c -0.5523,0 -1,0.4 -1,1 l 0,11 c 0,0.5 0.4477,1 1,1 l 0,-1 0,-11 0,-1 z m 4,0 c -0.552,0 -1,0.4 -1,1 l 0,11 c 0,0.5 0.448,1 1,1 l 0,-1 0,-11 0,-1 z m 4,0 c -0.552,0 -1,0.4 -1,1 l 0,11 c 0,0.5 0.448,1 1,1 l 0,-1 0,-11 0,-1 z"
       id="path3432"
       inkscape:connector-curvature="0"
       style="fill:#f39c12" />
    <path
       d="m 5,1031.4 0,0.3 0,1.7 0,2.4 c 0.2125,0.1 0.4599,0.2 0.7188,0.2 0.7007,0 1.2727,-0.5 1.4374,-1.2 0.1722,0.1 0.3658,0.2 0.5626,0.2 0.1829,0 0.3691,-0.1 0.5312,-0.1 -0.0035,0 -0.0312,0 -0.0312,0.1 0,0.5 0.4477,1 1,1 0.2515,0 0.4805,-0.1 0.6562,-0.3 0.239,0.2 0.533,0.3 0.844,0.3 0.666,0 1.21,-0.5 1.406,-1.1 0.034,0 0.059,0.1 0.094,0.1 0.552,0 1,-0.5 1,-1 0,0.5 0.447,1 1,1 0.552,0 1,-0.5 1,-1 l 0.093,0 c 0.204,0.5 0.751,1 1.407,1 0.098,0 0.189,-0.1 0.281,-0.1 l 0,-1.5 0,-1.7 0,-0.3 -12,0 z"
       id="path3434"
       inkscape:connector-curvature="0"
       style="fill:#ecf0f1" />
  </g>
</svg>
