<?xml version="1.0" encoding="UTF-8" standalone="no"?>
<svg
   xmlns:dc="http://purl.org/dc/elements/1.1/"
   xmlns:cc="http://creativecommons.org/ns#"
   xmlns:rdf="http://www.w3.org/1999/02/22-rdf-syntax-ns#"
   xmlns:svg="http://www.w3.org/2000/svg"
   xmlns="http://www.w3.org/2000/svg"
   xmlns:sodipodi="http://sodipodi.sourceforge.net/DTD/sodipodi-0.dtd"
   xmlns:inkscape="http://www.inkscape.org/namespaces/inkscape"
   height="540.04102"
   version="1.1"
   width="512"
   id="svg3414"
   inkscape:version="0.91 r13725"
   sodipodi:docname="react-beer.svg">
  <metadata
     id="metadata3440">
    <rdf:RDF>
      <cc:Work
         rdf:about="">
        <dc:format>image/svg+xml</dc:format>
        <dc:type
           rdf:resource="http://purl.org/dc/dcmitype/StillImage" />
        <dc:title />
      </cc:Work>
    </rdf:RDF>
  </metadata>
  <defs
     id="defs3438">
    <clipPath
       clipPathUnits="userSpaceOnUse"
       id="clipPath3669">
      <rect
         style="fill:#000000;stroke:none"
         id="rect3671"
         width="22.894081"
         height="19.172781"
         x="1.2114958"
         y="1031.4142" />
    </clipPath>
  </defs>
  <sodipodi:namedview
     pagecolor="#ffffff"
     bordercolor="#666666"
     borderopacity="1"
     objecttolerance="10"
     gridtolerance="10"
     guidetolerance="10"
     inkscape:pageopacity="0"
     inkscape:pageshadow="2"
     inkscape:window-width="1366"
     inkscape:window-height="704"
     id="namedview3436"
     showgrid="false"
     inkscape:zoom="0.61458334"
     inkscape:cx="228.22197"
     inkscape:cy="252.33339"
     inkscape:window-x="0"
     inkscape:window-y="27"
     inkscape:window-maximized="1"
     inkscape:current-layer="svg3414"
     inkscape:snap-grids="true" />
  <g
     transform="matrix(28.444444,0,0,28.444444,-113.77778,-29338.003)"
     id="g3416"
     clip-path="url(#clipPath3669)"
     inkscape:export-xdpi="179.98634"
     inkscape:export-ydpi="179.98634">
    <path
       d="m 4,1033.4 0,15 c 0,1.1 0.8954,2 2,2 l 10,0 c 1.105,0 2,-0.9 2,-2 l 0,-15 -14,0 z"
       id="path3418"
       inkscape:connector-curvature="0"
       style="fill:#f1c40f" />
    <path
       d="m 4,1031.4 0,2 0,15 c 0,1.1 0.8954,2 2,2 l 10,0 c 1.105,0 2,-0.9 2,-2 l 0,-15 0,-2 -1,0 0,2 0,15 c 0,0.5 -0.448,1 -1,1 l -10,0 c -0.5523,0 -1,-0.5 -1,-1 l 0,-15 0,-2 -1,0 z"
       id="path3420"
       inkscape:connector-curvature="0"
       style="fill:#f39c12" />
    <path
       d="m 18,1034.4 0,0.7 0,0.3 0,1 1,0 c 0.552,0 1,0.4 1,1 l 0,3 0,3 c 0,0.5 -0.448,1 -1,1 l -1,0 0,1 0,0.2 0,0.8 2,0 c 1.105,0 2,-0.9 2,-2 l 0,-2 0,-2 0,-2 0,-2 c 0,-1.1 -0.895,-2 -2,-2 l -2,0 z"
       id="path3422"
       inkscape:connector-curvature="0"
       style="fill:#ecf0f1" />
    <path
       d="m 19,1034.4 c 1.105,0 2,0.9 2,2 l 0,2 0,2 0,2 0,2 c 0,1.1 -0.895,2 -2,2 l 1,0 c 1.105,0 2,-0.9 2,-2 l 0,-2 0,-2 0,-2 0,-2 c 0,-1.1 -0.895,-2 -2,-2 l -1,0 z"
       id="path3424"
       inkscape:connector-curvature="0"
       style="fill:#bdc3c7" />
    <path
       d="m 4,1047.4 0,1 c 0,1.1 0.8954,2 2,2 l 10,0 c 1.105,0 2,-0.9 2,-2 l 0,-1 c 0,1.1 -0.895,2 -2,2 l -10,0 c -1.1046,0 -2,-0.9 -2,-2 z"
       id="path3426"
       inkscape:connector-curvature="0"
       style="fill:#e67e22" />
    <rect
       height="5"
       width="1"
       x="4"
       y="1030.4"
       id="rect3428"
       style="fill:#bdc3c7" />
    <rect
       height="4"
       width="1"
       x="17"
       y="1030.4"
       id="rect3430"
       style="fill:#bdc3c7" />
    <path
       d="m 7,1035.4 c -0.5523,0 -1,0.4 -1,1 l 0,11 c 0,0.5 0.4477,1 1,1 l 0,-1 0,-11 0,-1 z m 4,0 c -0.552,0 -1,0.4 -1,1 l 0,11 c 0,0.5 0.448,1 1,1 l 0,-1 0,-11 0,-1 z m 4,0 c -0.552,0 -1,0.4 -1,1 l 0,11 c 0,0.5 0.448,1 1,1 l 0,-1 0,-11 0,-1 z"
       id="path3432"
       inkscape:connector-curvature="0"
       style="fill:#f39c12" />
    <path
       d="m 5,1031.4 0,0.3 0,1.7 0,2.4 c 0.2125,0.1 0.4599,0.2 0.7188,0.2 0.7007,0 1.2727,-0.5 1.4374,-1.2 0.1722,0.1 0.3658,0.2 0.5626,0.2 0.1829,0 0.3691,-0.1 0.5312,-0.1 -0.0035,0 -0.0312,0 -0.0312,0.1 0,0.5 0.4477,1 1,1 0.2515,0 0.4805,-0.1 0.6562,-0.3 0.239,0.2 0.533,0.3 0.844,0.3 0.666,0 1.21,-0.5 1.406,-1.1 0.034,0 0.059,0.1 0.094,0.1 0.552,0 1,-0.5 1,-1 0,0.5 0.447,1 1,1 0.552,0 1,-0.5 1,-1 l 0.093,0 c 0.204,0.5 0.751,1 1.407,1 0.098,0 0.189,-0.1 0.281,-0.1 l 0,-1.5 0,-1.7 0,-0.3 -12,0 z"
       id="path3434"
       inkscape:connector-curvature="0"
       style="fill:#ecf0f1" />
  </g>
  <g
     id="g3553"
     transform="matrix(0.61295972,0,0,0.61295972,31.277226,135.87547)"
     style="fill:#ffffff;stroke:#ffffff"
     inkscape:export-xdpi="179.98634"
     inkscape:export-ydpi="179.98634">
    <g
       id="Background"
       style="fill:#ffffff;stroke:#ffffff">
      <rect
         id="rect3536"
         height="510"
         width="570"
         y="0"
         x="0"
         style="fill:#ffffff;fill-opacity:0;stroke:none" />
    </g>
    <g
       id="Layer_1"
       style="fill:#ffffff;stroke:#ffffff"
       transform="translate(-9.7885713,6.5257142)">
      <path
         id="path3539"
         d="m 334.696,254.628 c 0,27.706 -22.461,50.167 -50.167,50.167 -27.706,0 -50.167,-22.461 -50.167,-50.167 0,-27.706 22.461,-50.167 50.167,-50.167 27.706,0 50.167,22.461 50.167,50.167 z"
         inkscape:connector-curvature="0"
         style="fill:#ffffff;stroke:#ffffff" />
      <path
         id="path3541"
         stroke-miterlimit="10"
         d="m 284.529,152.628 c 67.356,0 129.928,9.665 177.107,25.907 56.844,19.569 91.794,49.233 91.794,76.093 0,27.991 -37.041,59.503 -98.083,79.728 -46.151,15.291 -106.879,23.272 -170.818,23.272 -65.554,0 -127.63,-7.492 -174.29,-23.441 -59.046,-20.182 -94.611,-52.103 -94.611,-79.559 0,-26.642 33.37,-56.076 89.415,-75.616 47.355,-16.509 111.472,-26.384 179.486,-26.384 z"
         inkscape:connector-curvature="0"
         style="fill:#ffffff;fill-opacity:0;stroke:#ffffff;stroke-width:24;stroke-miterlimit:10" />
      <path
         id="path3543"
         stroke-miterlimit="10"
         d="m 195.736,203.922 c 33.649,-58.348 73.281,-107.724 110.92,-140.48 45.35,-39.466 88.507,-54.923 111.775,-41.505 24.248,13.983 33.042,61.814 20.067,124.796 -9.81,47.618 -33.234,104.212 -65.176,159.601 -32.749,56.788 -70.25,106.819 -107.377,139.272 -46.981,41.068 -92.4,55.929 -116.185,42.213 -23.079,-13.31 -31.906,-56.921 -20.834,-115.233 9.355,-49.27 32.832,-109.745 66.81,-168.664 z"
         inkscape:connector-curvature="0"
         style="fill:#ffffff;fill-opacity:0;stroke:#ffffff;stroke-width:24;stroke-miterlimit:10" />
      <path
         id="path3545"
         stroke-miterlimit="10"
         d="M 195.821,306.482 C 162.075,248.19 139.09,189.195 129.509,140.227 117.965,81.228 126.127,36.118 149.373,22.661 c 24.224,-14.024 70.055,2.244 118.14,44.94 36.356,32.28 73.688,80.837 105.723,136.173 32.844,56.733 57.461,114.209 67.036,162.582 12.117,61.213 2.309,107.984 -21.453,121.74 C 395.762,501.444 353.57,487.312 308.58,448.597 270.567,415.886 229.898,365.344 195.821,306.482 Z"
         inkscape:connector-curvature="0"
         style="fill:#ffffff;fill-opacity:0;stroke:#ffffff;stroke-width:24;stroke-miterlimit:10" />
    </g>
  </g>
</svg>
